<svg width="54" height="69" viewBox="0 0 54 69" fill="none" xmlns="http://www.w3.org/2000/svg">
<path d="M52.4774 46.271C52.4774 46.271 50.6222 50.964 41.7796 51.6986C41.7796 51.6986 44.363 49.4688 41.7796 46.4525C39.1961 43.4275 35.6157 43.6782 35.6157 43.6782C35.6157 43.6782 41.7796 38.1814 44.9092 37.8875C48.0388 37.5937 50.8216 40.0137 51.4631 41.0076C52.1133 42.0015 53.0583 45.3203 52.4774 46.271Z" fill="url(#paint0_linear)"/>
<path opacity="0.45" d="M52.4776 46.271C53.0584 45.3203 52.1134 41.9928 51.4632 41.0075C51.0818 40.4198 49.9461 39.3308 48.4377 38.6049C45.6462 38.795 41.4763 39.5815 40.8261 39.7025C40.8087 39.7111 40.7914 39.7198 40.7827 39.7284C41.2595 39.8667 45.8022 41.336 46.5998 45.5104C47.4407 49.9182 41.7797 51.6986 41.7797 51.6986C50.6223 50.964 52.4776 46.271 52.4776 46.271Z" fill="url(#paint1_linear)"/>
<path d="M22.1437 53.0123C22.1437 53.0123 29.0964 47.6625 35.1909 44.6894C41.2854 41.7163 46.4523 40.731 48.8363 41.5866C51.2204 42.4422 52.3474 44.093 52.4774 46.2796C52.4774 46.2796 54.0899 43.6782 51.1684 37.8443C48.2382 32.0105 45.0652 27.5249 41.6148 27.5249C38.1645 27.5249 23.262 29.4436 16.708 38.8209C10.1541 48.1983 12.7982 50.3158 14.5841 51.4307C16.3786 52.5542 19.751 54.1359 22.1437 53.0123Z" fill="url(#paint2_linear)"/>
<path opacity="0.41" d="M39.8896 34.3181C28.2728 36.4701 14.5146 47.818 12.7114 49.3305C13.0842 50.4108 13.8904 50.9899 14.584 51.422C16.3699 52.5456 19.7509 54.1272 22.1349 53.0036C22.1349 53.0036 29.0877 47.6538 35.1822 44.6807C41.2766 41.7076 46.4435 40.7223 48.8276 41.5779C51.2116 42.4336 52.3386 44.0843 52.4687 46.271C52.4687 46.271 54.0811 43.6695 51.1596 37.8356C50.5267 36.5825 49.8852 35.3984 49.235 34.3008C46.8596 33.739 43.7994 33.6007 39.8896 34.3181Z" fill="url(#paint3_linear)"/>
<path d="M40.2726 19.0291L31.0399 3.09194C28.6558 -1.03065 22.674 -1.03065 20.2813 3.09194C20.2813 3.09194 11.3086 18.597 11.1612 18.8476C6.4885 26.9286 -1.90334 43.6955 0.879489 49.2441C2.70003 52.8654 9.37537 53.7642 13.788 53.9457C16.1374 54.0494 17.8452 53.9457 17.8452 53.9457C21.2262 53.6951 22.1452 53.0123 22.1452 53.0123C14.2648 53.3407 15.3225 44.093 20.8881 34.0588C26.4451 24.016 40.2726 19.0291 40.2726 19.0291Z" fill="url(#paint4_linear)"/>
<path opacity="0.45" d="M20.8779 34.0588C26.4436 24.0246 40.2711 19.0291 40.2711 19.0291L34.0379 8.26892C31.7405 9.43569 28.8883 11.0692 25.646 13.3249C16.9074 19.4008 6.84242 38.1555 7.90007 46.2105C8.95772 54.2655 22.1437 53.0123 22.1437 53.0123C14.2633 53.3407 15.321 44.093 20.8779 34.0588Z" fill="url(#paint5_linear)"/>
<path d="M5.89748 62.9256C5.89748 62.286 5.50736 61.9922 4.6231 61.9922C3.76484 61.9922 3.30537 62.2687 3.10597 62.9256L0.548541 62.5107C0.817289 61.7242 1.11204 61.2921 1.67555 60.8945C2.39509 60.3846 3.39206 60.134 4.69245 60.134C5.68074 60.134 6.6517 60.3241 7.17186 60.6007C8.03011 61.0674 8.40289 61.802 8.40289 63.0034V66.6074C8.40289 67.4198 8.4289 67.9038 8.49826 68.5088H5.89748V67.8951C5.14325 68.4656 4.39769 68.6989 3.2967 68.6989C2.27372 68.6989 1.51083 68.4569 0.982005 67.9643C0.496526 67.5235 0.245117 66.8839 0.245117 66.1493C0.245117 65.311 0.583218 64.6368 1.22474 64.1961C1.90962 63.7121 2.80255 63.4355 4.01625 63.3318C4.5364 63.2799 4.94386 63.2626 5.90615 63.2367V62.9256H5.89748ZM5.89748 64.948C4.70112 64.9739 4.12895 65.043 3.58278 65.2159C3.0973 65.3801 2.80255 65.7085 2.80255 66.0975C2.80255 66.5814 3.20134 66.858 3.90355 66.858C4.44971 66.858 5.05656 66.6592 5.42067 66.3481C5.73276 66.0802 5.90615 65.7172 5.90615 65.3196V64.948H5.89748Z" fill="#496C32"/>
<path d="M15.9537 62.77C15.3382 62.5798 15.0001 62.5193 14.584 62.5193C13.8991 62.5193 13.379 62.7613 12.9888 63.2367C12.7374 63.5565 12.6421 63.8417 12.5901 64.4294V66.5123C12.5901 67.3679 12.6161 67.8778 12.6941 68.5174H9.91992C9.99795 67.8519 10.024 67.3679 10.024 66.5036V62.3897C10.024 61.4131 9.99795 60.9464 9.91992 60.3759H12.5901V61.4304C13.2489 60.5747 14.0552 60.2117 15.2689 60.2117C15.6937 60.2117 15.9624 60.2377 16.5953 60.3759L15.9537 62.77Z" fill="#496C32"/>
<path d="M19.7512 65.7863C19.8812 66.4777 20.3407 66.7888 21.2423 66.7888C22.0485 66.7888 22.4993 66.5641 22.4993 66.1493C22.4993 65.9505 22.3953 65.7776 22.2046 65.6653C22.0139 65.5616 21.8405 65.5011 21.1036 65.3541C20.0806 65.1554 19.5605 65.0171 19.1183 64.8701C18.4768 64.6281 18.0347 64.3256 17.7746 63.9194C17.5579 63.5564 17.4365 63.107 17.4365 62.649C17.4365 61.0414 18.7889 60.0734 21.0256 60.0734C22.3 60.0734 23.2536 60.35 23.8778 60.9291C24.3199 61.318 24.5366 61.7069 24.7447 62.4502L22.1612 62.7267C22.0919 62.1823 21.7625 61.9403 21.0342 61.9403C20.3407 61.9403 19.9072 62.165 19.9072 62.5107C19.9072 62.8737 20.1847 63.0033 21.5197 63.2972C22.8374 63.5737 23.2449 63.6947 23.7217 63.9367C24.5886 64.3602 25.0048 65.0171 25.0048 65.9851C25.0048 66.6938 24.762 67.3333 24.3199 67.7655C23.6784 68.405 22.5774 68.7421 21.1469 68.7421C19.4564 68.7421 18.2687 68.284 17.6185 67.4025C17.3498 67.0308 17.2198 66.711 17.0811 66.0628L19.7512 65.7863Z" fill="#496C32"/>
<path d="M26.166 68.5173C26.244 67.8864 26.27 67.3246 26.27 66.5036V59.4252C26.27 58.5004 26.244 57.93 26.166 57.4114H28.9402C28.8622 57.9991 28.8361 58.4831 28.8361 59.4252V60.8426C28.8361 60.9463 28.8188 61.1624 28.8188 61.2834C29.6251 60.5055 30.466 60.1771 31.6103 60.1771C32.5206 60.1771 33.2488 60.4277 33.743 60.929C34.2804 61.4649 34.5059 62.1217 34.5059 63.1761V66.5295C34.5059 67.3074 34.5492 67.9729 34.6099 68.5346H31.8184C31.8964 67.8951 31.9224 67.3333 31.9224 66.5209V63.7811C31.9224 63.2453 31.8704 63.0033 31.7057 62.7786C31.515 62.5366 31.2202 62.4156 30.8474 62.4156C30.0845 62.4156 29.3563 62.9255 28.8275 63.8071V66.5209C28.8275 67.2814 28.8535 67.8432 28.9315 68.5346H26.166V68.5173Z" fill="#496C32"/>
<path d="M41.3809 62.9256C41.3809 62.286 40.9908 61.9922 40.1065 61.9922C39.2482 61.9922 38.7888 62.2687 38.5894 62.9256L36.0319 62.5107C36.3007 61.7242 36.5954 61.2921 37.1589 60.8945C37.8872 60.3846 38.8755 60.134 40.1758 60.134C41.1641 60.134 42.1351 60.3241 42.6553 60.6007C43.5135 61.0674 43.8863 61.802 43.8863 63.0034V66.6074C43.8863 67.4198 43.9123 67.9038 43.9817 68.5088H41.3809V67.8951C40.6266 68.4656 39.8811 68.6989 38.7801 68.6989C37.7571 68.6989 36.9942 68.4569 36.4654 67.9643C35.9799 67.5235 35.7285 66.8839 35.7285 66.1493C35.7285 65.311 36.0666 64.6368 36.7081 64.1961C37.393 63.7121 38.2859 63.4355 39.4996 63.3318C40.0198 63.2799 40.4273 63.2626 41.3895 63.2367V62.9256H41.3809ZM41.3809 64.948C40.1845 64.9739 39.6123 65.043 39.0662 65.2159C38.5807 65.3801 38.2859 65.7085 38.2859 66.0975C38.2859 66.5814 38.6847 66.858 39.3869 66.858C39.9331 66.858 40.54 66.6592 40.9041 66.3481C41.2162 66.0802 41.3895 65.7172 41.3895 65.3196V64.948H41.3809Z" fill="#496C32"/>
<path d="M50.7783 62.9256C50.7783 62.286 50.3882 61.9922 49.504 61.9922C48.6457 61.9922 48.1862 62.2687 47.9868 62.9256L45.4294 62.5107C45.6981 61.7242 45.9929 61.2921 46.5564 60.8945C47.2846 60.3846 48.2729 60.134 49.5733 60.134C50.5616 60.134 51.5326 60.3241 52.0527 60.6007C52.911 61.0674 53.2838 61.802 53.2838 63.0034V66.6074C53.2838 67.4198 53.3098 67.9038 53.3791 68.5088H50.7783V67.8951C50.0241 68.4656 49.2786 68.6989 48.1776 68.6989C47.1546 68.6989 46.3917 68.4569 45.8629 67.9643C45.3774 67.5235 45.126 66.8839 45.126 66.1493C45.126 65.311 45.4641 64.6368 46.1056 64.1961C46.7905 63.7121 47.6834 63.4355 48.8971 63.3318C49.4173 63.2799 49.8247 63.2626 50.787 63.2367V62.9256H50.7783ZM50.7783 64.948C49.582 64.9739 49.0098 65.043 48.4636 65.2159C47.9782 65.3801 47.6834 65.7085 47.6834 66.0975C47.6834 66.5814 48.0822 66.858 48.7844 66.858C49.3306 66.858 49.9374 66.6592 50.3015 66.3481C50.6136 66.0802 50.787 65.7172 50.787 65.3196V64.948H50.7783Z" fill="#496C32"/>
<defs>
<linearGradient id="paint0_linear" x1="48.9259" y1="35.263" x2="40.124" y2="52.9208" gradientUnits="userSpaceOnUse">
<stop stop-color="#EE3624"/>
<stop offset="1" stop-color="#FAA31A"/>
</linearGradient>
<linearGradient id="paint1_linear" x1="43.6735" y1="54.6802" x2="46.8762" y2="42.0441" gradientUnits="userSpaceOnUse">
<stop stop-color="#F79320"/>
<stop offset="0.3567" stop-color="#F78E20" stop-opacity="0.6433"/>
<stop offset="0.8697" stop-color="#F58120" stop-opacity="0.1303"/>
<stop offset="1" stop-color="#F47D20" stop-opacity="0"/>
</linearGradient>
<linearGradient id="paint2_linear" x1="50.7276" y1="32.8483" x2="24.7791" y2="46.4161" gradientUnits="userSpaceOnUse">
<stop stop-color="#FFD10A"/>
<stop offset="0.2237" stop-color="#FECC0D"/>
<stop offset="0.5332" stop-color="#FDC014"/>
<stop offset="0.8914" stop-color="#FAAB19"/>
<stop offset="1" stop-color="#FAA31A"/>
</linearGradient>
<linearGradient id="paint3_linear" x1="23.7723" y1="52.1652" x2="46.4025" y2="38.8776" gradientUnits="userSpaceOnUse">
<stop stop-color="#EE3624"/>
<stop offset="0.1354" stop-color="#EF4423"/>
<stop offset="0.7127" stop-color="#F36F21"/>
<stop offset="1" stop-color="#F47D20"/>
</linearGradient>
<linearGradient id="paint4_linear" x1="30.7376" y1="8.46564" x2="10.3459" y2="49.9479" gradientUnits="userSpaceOnUse">
<stop stop-color="#EE3624"/>
<stop offset="0.1354" stop-color="#EF4423"/>
<stop offset="0.7127" stop-color="#F36F21"/>
<stop offset="1" stop-color="#F47D20"/>
</linearGradient>
<linearGradient id="paint5_linear" x1="38.635" y1="12.0931" x2="15.2332" y2="43.8516" gradientUnits="userSpaceOnUse">
<stop stop-color="#F79320"/>
<stop offset="0.3567" stop-color="#F78E20" stop-opacity="0.6433"/>
<stop offset="0.8697" stop-color="#F58120" stop-opacity="0.1303"/>
<stop offset="1" stop-color="#F47D20" stop-opacity="0"/>
</linearGradient>
</defs>
</svg>
